<?xml version="1.0" standalone="no"?>
<!DOCTYPE svg PUBLIC "-//W3C//DTD SVG 20010904//EN"
 "http://www.w3.org/TR/2001/REC-SVG-20010904/DTD/svg10.dtd">
<svg version="1.0" xmlns="http://www.w3.org/2000/svg"
 width="192.000000pt" height="192.000000pt" viewBox="0 0 192.000000 192.000000"
 preserveAspectRatio="xMidYMid meet">
<metadata>
Created by potrace 1.14, written by Peter Selinger 2001-2017
</metadata>
<g transform="translate(0.000000,192.000000) scale(0.100000,-0.100000)"
fill="#000000" stroke="none">
<path d="M1443 1580 c-39 -9 -97 -56 -112 -90 -33 -75 -62 -250 -68 -415 -5
-155 -4 -172 12 -188 10 -10 27 -17 39 -16 11 1 45 -5 74 -14 29 -9 86 -19
127 -23 63 -6 79 -4 117 15 23 12 51 33 61 46 27 37 47 126 47 206 0 73 -13
110 -48 142 l-20 19 24 51 c16 36 24 70 24 110 0 55 -2 61 -42 103 -56 59
-137 78 -235 54z m155 -123 c38 -35 26 -76 -39 -138 -59 -55 -50 -85 44 -145
34 -22 37 -28 37 -70 0 -73 -26 -149 -56 -162 -31 -15 -134 -1 -188 24 l-39
19 7 122 c4 67 13 146 21 175 7 29 16 74 20 100 7 48 41 91 80 101 34 9 89 -4
113 -26z"/>
<path d="M161 1561 c-30 -19 -40 -182 -17 -286 8 -33 20 -85 29 -116 8 -30 22
-100 31 -155 10 -54 19 -107 22 -117 7 -24 41 -40 69 -33 26 7 55 82 75 196
18 99 16 97 55 60 21 -21 45 -61 61 -104 40 -103 82 -137 128 -103 26 19 35
82 36 252 0 83 5 183 10 222 5 40 7 80 4 88 -8 21 -48 29 -73 16 -28 -15 -33
-39 -40 -205 l-6 -142 -65 72 c-70 78 -88 89 -126 80 -27 -7 -63 -71 -64 -116
-1 -19 -5 -14 -16 20 -34 105 -45 184 -39 266 5 68 4 84 -10 98 -18 18 -42 20
-64 7z"/>
<path d="M773 1548 c-12 -6 -26 -25 -31 -42 -17 -57 -1 -566 19 -633 6 -17 18
-34 27 -38 28 -11 313 -26 365 -19 50 6 77 25 77 52 -1 43 -12 46 -177 49
-218 4 -203 -3 -203 92 0 43 -3 93 -6 110 l-6 31 65 0 c70 0 97 14 97 50 0 36
-27 50 -98 50 l-67 0 0 100 0 100 127 0 c134 0 158 8 158 50 0 41 -25 50 -143
50 -62 0 -128 2 -147 5 -19 2 -45 0 -57 -7z"/>
<path d="M64 775 c-10 -25 3 -282 18 -350 11 -49 17 -60 33 -60 23 0 25 27 11
128 l-7 57 45 0 46 0 1 -42 c2 -79 12 -103 39 -103 21 0 25 4 22 25 -2 14 -6
90 -10 170 -7 136 -8 145 -27 145 -18 0 -20 -8 -23 -72 l-3 -73 -49 0 -49 0
-3 92 c-3 79 -6 93 -21 96 -9 2 -20 -4 -23 -13z"/>
<path d="M1757 694 c-4 -4 -7 -69 -7 -144 0 -108 3 -140 15 -150 18 -15 45
-10 59 13 9 14 7 21 -6 31 -19 14 -24 36 -9 36 5 0 32 -21 61 -47 l51 -46 -3
44 c-3 37 -9 47 -43 74 l-41 31 38 27 c39 28 50 63 23 73 -8 3 -31 -8 -52 -25
l-38 -32 -5 58 c-4 42 -9 59 -20 61 -9 1 -19 0 -23 -4z"/>
<path d="M746 627 c-14 -19 -31 -49 -38 -68 l-12 -34 -10 50 c-10 45 -14 50
-46 57 -19 4 -40 6 -46 3 -31 -10 -28 -210 3 -222 21 -8 43 23 44 61 1 30 1
30 8 6 15 -55 65 -30 107 53 13 26 28 47 33 47 5 0 12 -26 16 -57 4 -32 11
-66 16 -75 11 -20 49 -24 66 -7 8 8 19 5 40 -10 39 -29 125 -39 157 -18 22 15
25 15 41 -3 21 -23 47 -25 78 -8 12 6 36 11 54 9 51 -4 64 27 61 140 -3 93 -3
94 -28 94 l-25 0 4 -89 c2 -64 0 -87 -8 -82 -6 4 -11 15 -11 25 0 24 -25 45
-45 37 -8 -3 -15 -18 -15 -33 0 -15 -5 -35 -10 -43 -19 -30 -35 7 -35 83 -1
67 -2 72 -23 75 -27 4 -46 -37 -39 -85 4 -22 1 -33 -9 -37 -8 -3 -14 -12 -14
-20 0 -36 -90 -20 -118 22 -13 20 -13 22 5 22 28 0 65 43 61 72 -2 19 -10 23
-45 26 -35 3 -47 -2 -69 -23 -21 -21 -25 -33 -22 -66 6 -66 -8 -43 -19 31 -6
39 -17 77 -23 85 -21 26 -57 18 -84 -18z"/>
<path d="M356 612 c-25 -48 -29 -96 -12 -135 16 -40 35 -50 107 -61 43 -6 48
-5 73 24 38 45 37 116 -1 152 -40 37 -66 48 -112 48 -34 0 -43 -4 -55 -28z
m102 -42 c40 -25 48 -43 33 -77 -10 -22 -16 -25 -48 -20 -40 7 -53 20 -53 55
0 25 16 62 28 62 4 0 22 -9 40 -20z"/>
<path d="M1612 615 c-16 -14 -35 -25 -40 -25 -22 0 -22 -22 -2 -99 23 -84 39
-107 66 -97 15 6 16 18 10 91 -7 79 -6 84 14 95 25 13 24 53 -1 58 -9 2 -30
-9 -47 -23z"/>
<path d="M1407 589 c-34 -28 -37 -34 -37 -85 0 -95 32 -130 111 -122 48 4 60
34 57 131 -3 64 -7 81 -23 93 -30 22 -67 16 -108 -17z m77 -45 c15 -38 2 -114
-19 -114 -45 0 -62 87 -23 114 28 20 34 20 42 0z"/>
</g>
</svg>
